<?xml version="1.0" encoding="utf-8" ?>
<svg baseProfile="full" height="100%" version="1.1" width="100%" xmlns="http://www.w3.org/2000/svg" xmlns:ev="http://www.w3.org/2001/xml-events" xmlns:xlink="http://www.w3.org/1999/xlink"><defs /><g fill="red" id="shapes"><rect fill="white" height="2.0cm" stroke="black" stroke-width="1" width="2.0cm" x="0.0cm" y="0.0cm" /><rect fill="lightgray" height="2.0cm" stroke="black" stroke-width="1" width="2.0cm" x="2.0cm" y="0.0cm" /><rect fill="white" height="2.0cm" stroke="black" stroke-width="1" width="2.0cm" x="4.0cm" y="0.0cm" /><rect fill="lightgray" height="2.0cm" stroke="black" stroke-width="1" width="2.0cm" x="6.0cm" y="0.0cm" /><rect fill="white" height="2.0cm" stroke="black" stroke-width="1" width="2.0cm" x="8.0cm" y="0.0cm" /><rect fill="lightgray" height="2.0cm" stroke="black" stroke-width="1" width="2.0cm" x="10.0cm" y="0.0cm" /><rect fill="white" height="2.0cm" stroke="black" stroke-width="1" width="2.0cm" x="12.0cm" y="0.0cm" /><rect fill="lightgray" height="2.0cm" stroke="black" stroke-width="1" width="2.0cm" x="14.0cm" y="0.0cm" /><rect fill="lightgray" height="2.0cm" stroke="black" stroke-width="1" width="2.0cm" x="0.0cm" y="2.0cm" /><rect fill="white" height="2.0cm" stroke="black" stroke-width="1" width="2.0cm" x="2.0cm" y="2.0cm" /><rect fill="lightgray" height="2.0cm" stroke="black" stroke-width="1" width="2.0cm" x="4.0cm" y="2.0cm" /><rect fill="white" height="2.0cm" stroke="black" stroke-width="1" width="2.0cm" x="6.0cm" y="2.0cm" /><rect fill="lightgray" height="2.0cm" stroke="black" stroke-width="1" width="2.0cm" x="8.0cm" y="2.0cm" /><rect fill="white" height="2.0cm" stroke="black" stroke-width="1" width="2.0cm" x="10.0cm" y="2.0cm" /><rect fill="lightgray" height="2.0cm" stroke="black" stroke-width="1" width="2.0cm" x="12.0cm" y="2.0cm" /><rect fill="white" height="2.0cm" stroke="black" stroke-width="1" width="2.0cm" x="14.0cm" y="2.0cm" /><rect fill="white" height="2.0cm" stroke="black" stroke-width="1" width="2.0cm" x="0.0cm" y="4.0cm" /><rect fill="lightgray" height="2.0cm" stroke="black" stroke-width="1" width="2.0cm" x="2.0cm" y="4.0cm" /><rect fill="white" height="2.0cm" stroke="black" stroke-width="1" width="2.0cm" x="4.0cm" y="4.0cm" /><rect fill="lightgray" height="2.0cm" stroke="black" stroke-width="1" width="2.0cm" x="6.0cm" y="4.0cm" /><rect fill="white" height="2.0cm" stroke="black" stroke-width="1" width="2.0cm" x="8.0cm" y="4.0cm" /><rect fill="lightgray" height="2.0cm" stroke="black" stroke-width="1" width="2.0cm" x="10.0cm" y="4.0cm" /><rect fill="white" height="2.0cm" stroke="black" stroke-width="1" width="2.0cm" x="12.0cm" y="4.0cm" /><rect fill="lightgray" height="2.0cm" stroke="black" stroke-width="1" width="2.0cm" x="14.0cm" y="4.0cm" /><rect fill="lightgray" height="2.0cm" stroke="black" stroke-width="1" width="2.0cm" x="0.0cm" y="6.0cm" /><rect fill="white" height="2.0cm" stroke="black" stroke-width="1" width="2.0cm" x="2.0cm" y="6.0cm" /><rect fill="lightgray" height="2.0cm" stroke="black" stroke-width="1" width="2.0cm" x="4.0cm" y="6.0cm" /><rect fill="white" height="2.0cm" stroke="black" stroke-width="1" width="2.0cm" x="6.0cm" y="6.0cm" /><rect fill="lightgray" height="2.0cm" stroke="black" stroke-width="1" width="2.0cm" x="8.0cm" y="6.0cm" /><rect fill="white" height="2.0cm" stroke="black" stroke-width="1" width="2.0cm" x="10.0cm" y="6.0cm" /><rect fill="lightgray" height="2.0cm" stroke="black" stroke-width="1" width="2.0cm" x="12.0cm" y="6.0cm" /><rect fill="white" height="2.0cm" stroke="black" stroke-width="1" width="2.0cm" x="14.0cm" y="6.0cm" /><rect fill="white" height="2.0cm" stroke="black" stroke-width="1" width="2.0cm" x="0.0cm" y="8.0cm" /><rect fill="lightgray" height="2.0cm" stroke="black" stroke-width="1" width="2.0cm" x="2.0cm" y="8.0cm" /><rect fill="white" height="2.0cm" stroke="black" stroke-width="1" width="2.0cm" x="4.0cm" y="8.0cm" /><rect fill="lightgray" height="2.0cm" stroke="black" stroke-width="1" width="2.0cm" x="6.0cm" y="8.0cm" /><rect fill="white" height="2.0cm" stroke="black" stroke-width="1" width="2.0cm" x="8.0cm" y="8.0cm" /><rect fill="lightgray" height="2.0cm" stroke="black" stroke-width="1" width="2.0cm" x="10.0cm" y="8.0cm" /><rect fill="white" height="2.0cm" stroke="black" stroke-width="1" width="2.0cm" x="12.0cm" y="8.0cm" /><rect fill="lightgray" height="2.0cm" stroke="black" stroke-width="1" width="2.0cm" x="14.0cm" y="8.0cm" /><rect fill="lightgray" height="2.0cm" stroke="black" stroke-width="1" width="2.0cm" x="0.0cm" y="10.0cm" /><rect fill="white" height="2.0cm" stroke="black" stroke-width="1" width="2.0cm" x="2.0cm" y="10.0cm" /><rect fill="lightgray" height="2.0cm" stroke="black" stroke-width="1" width="2.0cm" x="4.0cm" y="10.0cm" /><rect fill="white" height="2.0cm" stroke="black" stroke-width="1" width="2.0cm" x="6.0cm" y="10.0cm" /><rect fill="lightgray" height="2.0cm" stroke="black" stroke-width="1" width="2.0cm" x="8.0cm" y="10.0cm" /><rect fill="white" height="2.0cm" stroke="black" stroke-width="1" width="2.0cm" x="10.0cm" y="10.0cm" /><rect fill="lightgray" height="2.0cm" stroke="black" stroke-width="1" width="2.0cm" x="12.0cm" y="10.0cm" /><rect fill="white" height="2.0cm" stroke="black" stroke-width="1" width="2.0cm" x="14.0cm" y="10.0cm" /><rect fill="white" height="2.0cm" stroke="black" stroke-width="1" width="2.0cm" x="0.0cm" y="12.0cm" /><rect fill="lightgray" height="2.0cm" stroke="black" stroke-width="1" width="2.0cm" x="2.0cm" y="12.0cm" /><rect fill="white" height="2.0cm" stroke="black" stroke-width="1" width="2.0cm" x="4.0cm" y="12.0cm" /><rect fill="lightgray" height="2.0cm" stroke="black" stroke-width="1" width="2.0cm" x="6.0cm" y="12.0cm" /><rect fill="white" height="2.0cm" stroke="black" stroke-width="1" width="2.0cm" x="8.0cm" y="12.0cm" /><rect fill="lightgray" height="2.0cm" stroke="black" stroke-width="1" width="2.0cm" x="10.0cm" y="12.0cm" /><rect fill="white" height="2.0cm" stroke="black" stroke-width="1" width="2.0cm" x="12.0cm" y="12.0cm" /><rect fill="lightgray" height="2.0cm" stroke="black" stroke-width="1" width="2.0cm" x="14.0cm" y="12.0cm" /><rect fill="lightgray" height="2.0cm" stroke="black" stroke-width="1" width="2.0cm" x="0.0cm" y="14.0cm" /><rect fill="white" height="2.0cm" stroke="black" stroke-width="1" width="2.0cm" x="2.0cm" y="14.0cm" /><rect fill="lightgray" height="2.0cm" stroke="black" stroke-width="1" width="2.0cm" x="4.0cm" y="14.0cm" /><rect fill="white" height="2.0cm" stroke="black" stroke-width="1" width="2.0cm" x="6.0cm" y="14.0cm" /><rect fill="lightgray" height="2.0cm" stroke="black" stroke-width="1" width="2.0cm" x="8.0cm" y="14.0cm" /><rect fill="white" height="2.0cm" stroke="black" stroke-width="1" width="2.0cm" x="10.0cm" y="14.0cm" /><rect fill="lightgray" height="2.0cm" stroke="black" stroke-width="1" width="2.0cm" x="12.0cm" y="14.0cm" /><rect fill="white" height="2.0cm" stroke="black" stroke-width="1" width="2.0cm" x="14.0cm" y="14.0cm" /></g><text fill="black" x="0.12cm" y="0.22cm">h1</text><text fill="black" x="2.12cm" y="0.22cm">h2</text><text fill="black" x="4.12cm" y="0.22cm">h3</text><text fill="black" x="6.12cm" y="0.22cm">h4</text><text fill="black" x="8.12cm" y="0.22cm">h5</text><text fill="black" x="10.12cm" y="0.22cm">h6</text><text fill="black" x="12.12cm" y="0.22cm">h7</text><text fill="black" x="14.12cm" y="0.22cm">h8</text><text fill="black" x="0.12cm" y="2.22cm">g1</text><text fill="black" x="2.12cm" y="2.22cm">g2</text><text fill="black" x="4.12cm" y="2.22cm">g3</text><text fill="black" x="6.12cm" y="2.22cm">g4</text><text fill="black" x="8.12cm" y="2.22cm">g5</text><text fill="black" x="10.12cm" y="2.22cm">g6</text><text fill="black" x="12.12cm" y="2.22cm">g7</text><text fill="black" x="14.12cm" y="2.22cm">g8</text><text fill="black" x="0.12cm" y="4.22cm">f1</text><text fill="black" x="2.12cm" y="4.22cm">f2</text><text fill="black" x="4.12cm" y="4.22cm">f3</text><text fill="black" x="6.12cm" y="4.22cm">f4</text><text fill="black" x="8.12cm" y="4.22cm">f5</text><text fill="black" x="10.12cm" y="4.22cm">f6</text><text fill="black" x="12.12cm" y="4.22cm">f7</text><text fill="black" x="14.12cm" y="4.22cm">f8</text><text fill="black" x="0.12cm" y="6.22cm">e1</text><text fill="black" x="2.12cm" y="6.22cm">e2</text><text fill="black" x="4.12cm" y="6.22cm">e3</text><text fill="black" x="6.12cm" y="6.22cm">e4</text><text fill="black" x="8.12cm" y="6.22cm">e5</text><text fill="black" x="10.12cm" y="6.22cm">e6</text><text fill="black" x="12.12cm" y="6.22cm">e7</text><text fill="black" x="14.12cm" y="6.22cm">e8</text><text fill="black" x="0.12cm" y="8.22cm">d1</text><text fill="black" x="2.12cm" y="8.22cm">d2</text><text fill="black" x="4.12cm" y="8.22cm">d3</text><text fill="black" x="6.12cm" y="8.22cm">d4</text><text fill="black" x="8.12cm" y="8.22cm">d5</text><text fill="black" x="10.12cm" y="8.22cm">d6</text><text fill="black" x="12.12cm" y="8.22cm">d7</text><text fill="black" x="14.12cm" y="8.22cm">d8</text><text fill="black" x="0.12cm" y="10.22cm">c1</text><text fill="black" x="2.12cm" y="10.22cm">c2</text><text fill="black" x="4.12cm" y="10.22cm">c3</text><text fill="black" x="6.12cm" y="10.22cm">c4</text><text fill="black" x="8.12cm" y="10.22cm">c5</text><text fill="black" x="10.12cm" y="10.22cm">c6</text><text fill="black" x="12.12cm" y="10.22cm">c7</text><text fill="black" x="14.12cm" y="10.22cm">c8</text><text fill="black" x="0.12cm" y="12.22cm">b1</text><text fill="black" x="2.12cm" y="12.22cm">b2</text><text fill="black" x="4.12cm" y="12.22cm">b3</text><text fill="black" x="6.12cm" y="12.22cm">b4</text><text fill="black" x="8.12cm" y="12.22cm">b5</text><text fill="black" x="10.12cm" y="12.22cm">b6</text><text fill="black" x="12.12cm" y="12.22cm">b7</text><text fill="black" x="14.12cm" y="12.22cm">b8</text><text fill="black" x="0.12cm" y="14.22cm">a1</text><text fill="black" x="2.12cm" y="14.22cm">a2</text><text fill="black" x="4.12cm" y="14.22cm">a3</text><text fill="black" x="6.12cm" y="14.22cm">a4</text><text fill="black" x="8.12cm" y="14.22cm">a5</text><text fill="black" x="10.12cm" y="14.22cm">a6</text><text fill="black" x="12.12cm" y="14.22cm">a7</text><text fill="black" x="14.12cm" y="14.22cm">a8</text></svg>