<?xml version="1.0" encoding="utf-8" ?>
<svg baseProfile="full" height="100%" version="1.1" width="100%" xmlns="http://www.w3.org/2000/svg" xmlns:ev="http://www.w3.org/2001/xml-events" xmlns:xlink="http://www.w3.org/1999/xlink"><defs /><g fill="red" id="shapes"><rect fill="white" height="2.5cm" stroke="black" stroke-width="1" width="2.5cm" x="0.0cm" y="0.0cm" /><rect fill="lightgray" height="2.5cm" stroke="black" stroke-width="1" width="2.5cm" x="2.5cm" y="0.0cm" /><rect fill="white" height="2.5cm" stroke="black" stroke-width="1" width="2.5cm" x="5.0cm" y="0.0cm" /><rect fill="lightgray" height="2.5cm" stroke="black" stroke-width="1" width="2.5cm" x="7.5cm" y="0.0cm" /><rect fill="white" height="2.5cm" stroke="black" stroke-width="1" width="2.5cm" x="10.0cm" y="0.0cm" /><rect fill="lightgray" height="2.5cm" stroke="black" stroke-width="1" width="2.5cm" x="12.5cm" y="0.0cm" /><rect fill="white" height="2.5cm" stroke="black" stroke-width="1" width="2.5cm" x="15.0cm" y="0.0cm" /><rect fill="lightgray" height="2.5cm" stroke="black" stroke-width="1" width="2.5cm" x="17.5cm" y="0.0cm" /><rect fill="lightgray" height="2.5cm" stroke="black" stroke-width="1" width="2.5cm" x="0.0cm" y="2.5cm" /><rect fill="white" height="2.5cm" stroke="black" stroke-width="1" width="2.5cm" x="2.5cm" y="2.5cm" /><rect fill="lightgray" height="2.5cm" stroke="black" stroke-width="1" width="2.5cm" x="5.0cm" y="2.5cm" /><rect fill="white" height="2.5cm" stroke="black" stroke-width="1" width="2.5cm" x="7.5cm" y="2.5cm" /><rect fill="lightgray" height="2.5cm" stroke="black" stroke-width="1" width="2.5cm" x="10.0cm" y="2.5cm" /><rect fill="white" height="2.5cm" stroke="black" stroke-width="1" width="2.5cm" x="12.5cm" y="2.5cm" /><rect fill="lightgray" height="2.5cm" stroke="black" stroke-width="1" width="2.5cm" x="15.0cm" y="2.5cm" /><rect fill="white" height="2.5cm" stroke="black" stroke-width="1" width="2.5cm" x="17.5cm" y="2.5cm" /><rect fill="white" height="2.5cm" stroke="black" stroke-width="1" width="2.5cm" x="0.0cm" y="5.0cm" /><rect fill="lightgray" height="2.5cm" stroke="black" stroke-width="1" width="2.5cm" x="2.5cm" y="5.0cm" /><rect fill="white" height="2.5cm" stroke="black" stroke-width="1" width="2.5cm" x="5.0cm" y="5.0cm" /><rect fill="lightgray" height="2.5cm" stroke="black" stroke-width="1" width="2.5cm" x="7.5cm" y="5.0cm" /><rect fill="white" height="2.5cm" stroke="black" stroke-width="1" width="2.5cm" x="10.0cm" y="5.0cm" /><rect fill="lightgray" height="2.5cm" stroke="black" stroke-width="1" width="2.5cm" x="12.5cm" y="5.0cm" /><rect fill="white" height="2.5cm" stroke="black" stroke-width="1" width="2.5cm" x="15.0cm" y="5.0cm" /><rect fill="lightgray" height="2.5cm" stroke="black" stroke-width="1" width="2.5cm" x="17.5cm" y="5.0cm" /><rect fill="lightgray" height="2.5cm" stroke="black" stroke-width="1" width="2.5cm" x="0.0cm" y="7.5cm" /><rect fill="white" height="2.5cm" stroke="black" stroke-width="1" width="2.5cm" x="2.5cm" y="7.5cm" /><rect fill="lightgray" height="2.5cm" stroke="black" stroke-width="1" width="2.5cm" x="5.0cm" y="7.5cm" /><rect fill="white" height="2.5cm" stroke="black" stroke-width="1" width="2.5cm" x="7.5cm" y="7.5cm" /><rect fill="lightgray" height="2.5cm" stroke="black" stroke-width="1" width="2.5cm" x="10.0cm" y="7.5cm" /><rect fill="white" height="2.5cm" stroke="black" stroke-width="1" width="2.5cm" x="12.5cm" y="7.5cm" /><rect fill="lightgray" height="2.5cm" stroke="black" stroke-width="1" width="2.5cm" x="15.0cm" y="7.5cm" /><rect fill="white" height="2.5cm" stroke="black" stroke-width="1" width="2.5cm" x="17.5cm" y="7.5cm" /><rect fill="white" height="2.5cm" stroke="black" stroke-width="1" width="2.5cm" x="0.0cm" y="10.0cm" /><rect fill="lightgray" height="2.5cm" stroke="black" stroke-width="1" width="2.5cm" x="2.5cm" y="10.0cm" /><rect fill="white" height="2.5cm" stroke="black" stroke-width="1" width="2.5cm" x="5.0cm" y="10.0cm" /><rect fill="lightgray" height="2.5cm" stroke="black" stroke-width="1" width="2.5cm" x="7.5cm" y="10.0cm" /><rect fill="white" height="2.5cm" stroke="black" stroke-width="1" width="2.5cm" x="10.0cm" y="10.0cm" /><rect fill="lightgray" height="2.5cm" stroke="black" stroke-width="1" width="2.5cm" x="12.5cm" y="10.0cm" /><rect fill="white" height="2.5cm" stroke="black" stroke-width="1" width="2.5cm" x="15.0cm" y="10.0cm" /><rect fill="lightgray" height="2.5cm" stroke="black" stroke-width="1" width="2.5cm" x="17.5cm" y="10.0cm" /><rect fill="lightgray" height="2.5cm" stroke="black" stroke-width="1" width="2.5cm" x="0.0cm" y="12.5cm" /><rect fill="white" height="2.5cm" stroke="black" stroke-width="1" width="2.5cm" x="2.5cm" y="12.5cm" /><rect fill="lightgray" height="2.5cm" stroke="black" stroke-width="1" width="2.5cm" x="5.0cm" y="12.5cm" /><rect fill="white" height="2.5cm" stroke="black" stroke-width="1" width="2.5cm" x="7.5cm" y="12.5cm" /><rect fill="lightgray" height="2.5cm" stroke="black" stroke-width="1" width="2.5cm" x="10.0cm" y="12.5cm" /><rect fill="white" height="2.5cm" stroke="black" stroke-width="1" width="2.5cm" x="12.5cm" y="12.5cm" /><rect fill="lightgray" height="2.5cm" stroke="black" stroke-width="1" width="2.5cm" x="15.0cm" y="12.5cm" /><rect fill="white" height="2.5cm" stroke="black" stroke-width="1" width="2.5cm" x="17.5cm" y="12.5cm" /><rect fill="white" height="2.5cm" stroke="black" stroke-width="1" width="2.5cm" x="0.0cm" y="15.0cm" /><rect fill="lightgray" height="2.5cm" stroke="black" stroke-width="1" width="2.5cm" x="2.5cm" y="15.0cm" /><rect fill="white" height="2.5cm" stroke="black" stroke-width="1" width="2.5cm" x="5.0cm" y="15.0cm" /><rect fill="lightgray" height="2.5cm" stroke="black" stroke-width="1" width="2.5cm" x="7.5cm" y="15.0cm" /><rect fill="white" height="2.5cm" stroke="black" stroke-width="1" width="2.5cm" x="10.0cm" y="15.0cm" /><rect fill="lightgray" height="2.5cm" stroke="black" stroke-width="1" width="2.5cm" x="12.5cm" y="15.0cm" /><rect fill="white" height="2.5cm" stroke="black" stroke-width="1" width="2.5cm" x="15.0cm" y="15.0cm" /><rect fill="lightgray" height="2.5cm" stroke="black" stroke-width="1" width="2.5cm" x="17.5cm" y="15.0cm" /><rect fill="lightgray" height="2.5cm" stroke="black" stroke-width="1" width="2.5cm" x="0.0cm" y="17.5cm" /><rect fill="white" height="2.5cm" stroke="black" stroke-width="1" width="2.5cm" x="2.5cm" y="17.5cm" /><rect fill="lightgray" height="2.5cm" stroke="black" stroke-width="1" width="2.5cm" x="5.0cm" y="17.5cm" /><rect fill="white" height="2.5cm" stroke="black" stroke-width="1" width="2.5cm" x="7.5cm" y="17.5cm" /><rect fill="lightgray" height="2.5cm" stroke="black" stroke-width="1" width="2.5cm" x="10.0cm" y="17.5cm" /><rect fill="white" height="2.5cm" stroke="black" stroke-width="1" width="2.5cm" x="12.5cm" y="17.5cm" /><rect fill="lightgray" height="2.5cm" stroke="black" stroke-width="1" width="2.5cm" x="15.0cm" y="17.5cm" /><rect fill="white" height="2.5cm" stroke="black" stroke-width="1" width="2.5cm" x="17.5cm" y="17.5cm" /></g><text fill="black" x="0.12cm" y="0.22cm">h1</text><text fill="black" x="2.62cm" y="0.22cm">h2</text><text fill="black" x="5.12cm" y="0.22cm">h3</text><text fill="black" x="7.62cm" y="0.22cm">h4</text><text fill="black" x="10.12cm" y="0.22cm">h5</text><text fill="black" x="12.62cm" y="0.22cm">h6</text><text fill="black" x="15.12cm" y="0.22cm">h7</text><text fill="black" x="17.62cm" y="0.22cm">h8</text><text fill="black" x="0.12cm" y="2.72cm">g1</text><text fill="black" x="2.62cm" y="2.72cm">g2</text><text fill="black" x="5.12cm" y="2.72cm">g3</text><text fill="black" x="7.62cm" y="2.72cm">g4</text><text fill="black" x="10.12cm" y="2.72cm">g5</text><text fill="black" x="12.62cm" y="2.72cm">g6</text><text fill="black" x="15.12cm" y="2.72cm">g7</text><text fill="black" x="17.62cm" y="2.72cm">g8</text><text fill="black" x="0.12cm" y="5.22cm">f1</text><text fill="black" x="2.62cm" y="5.22cm">f2</text><text fill="black" x="5.12cm" y="5.22cm">f3</text><text fill="black" x="7.62cm" y="5.22cm">f4</text><text fill="black" x="10.12cm" y="5.22cm">f5</text><text fill="black" x="12.62cm" y="5.22cm">f6</text><text fill="black" x="15.12cm" y="5.22cm">f7</text><text fill="black" x="17.62cm" y="5.22cm">f8</text><text fill="black" x="0.12cm" y="7.72cm">e1</text><text fill="black" x="2.62cm" y="7.72cm">e2</text><text fill="black" x="5.12cm" y="7.72cm">e3</text><text fill="black" x="7.62cm" y="7.72cm">e4</text><text fill="black" x="10.12cm" y="7.72cm">e5</text><text fill="black" x="12.62cm" y="7.72cm">e6</text><text fill="black" x="15.12cm" y="7.72cm">e7</text><text fill="black" x="17.62cm" y="7.72cm">e8</text><text fill="black" x="0.12cm" y="10.22cm">d1</text><text fill="black" x="2.62cm" y="10.22cm">d2</text><text fill="black" x="5.12cm" y="10.22cm">d3</text><text fill="black" x="7.62cm" y="10.22cm">d4</text><text fill="black" x="10.12cm" y="10.22cm">d5</text><text fill="black" x="12.62cm" y="10.22cm">d6</text><text fill="black" x="15.12cm" y="10.22cm">d7</text><text fill="black" x="17.62cm" y="10.22cm">d8</text><text fill="black" x="0.12cm" y="12.72cm">c1</text><text fill="black" x="2.62cm" y="12.72cm">c2</text><text fill="black" x="5.12cm" y="12.72cm">c3</text><text fill="black" x="7.62cm" y="12.72cm">c4</text><text fill="black" x="10.12cm" y="12.72cm">c5</text><text fill="black" x="12.62cm" y="12.72cm">c6</text><text fill="black" x="15.12cm" y="12.72cm">c7</text><text fill="black" x="17.62cm" y="12.72cm">c8</text><text fill="black" x="0.12cm" y="15.22cm">b1</text><text fill="black" x="2.62cm" y="15.22cm">b2</text><text fill="black" x="5.12cm" y="15.22cm">b3</text><text fill="black" x="7.62cm" y="15.22cm">b4</text><text fill="black" x="10.12cm" y="15.22cm">b5</text><text fill="black" x="12.62cm" y="15.22cm">b6</text><text fill="black" x="15.12cm" y="15.22cm">b7</text><text fill="black" x="17.62cm" y="15.22cm">b8</text><text fill="black" x="0.12cm" y="17.72cm">a1</text><text fill="black" x="2.62cm" y="17.72cm">a2</text><text fill="black" x="5.12cm" y="17.72cm">a3</text><text fill="black" x="7.62cm" y="17.72cm">a4</text><text fill="black" x="10.12cm" y="17.72cm">a5</text><text fill="black" x="12.62cm" y="17.72cm">a6</text><text fill="black" x="15.12cm" y="17.72cm">a7</text><text fill="black" x="17.62cm" y="17.72cm">a8</text></svg>