<?xml version='1.0' encoding='ASCII' standalone='yes'?>
<svg xmlns:xlink="http://www.w3.org/1999/xlink" xmlns="http://www.w3.org/2000/svg" version="1.1" width="16.0cm" viewbox="0 0 16.0cm 16.0cm" height="16.0cm">
  <g>
    <g>
      <g>
        <defs/>
        <g fill="red" id="shapes">
          <rect fill="white" height="2.5cm" stroke="black" stroke-width="1" width="2.5cm" x="0.0cm" y="0.0cm"/>
          <rect fill="lightgray" height="2.5cm" stroke="black" stroke-width="1" width="2.5cm" x="2.5cm" y="0.0cm"/>
          <rect fill="white" height="2.5cm" stroke="black" stroke-width="1" width="2.5cm" x="5.0cm" y="0.0cm"/>
          <rect fill="lightgray" height="2.5cm" stroke="black" stroke-width="1" width="2.5cm" x="7.5cm" y="0.0cm"/>
          <rect fill="white" height="2.5cm" stroke="black" stroke-width="1" width="2.5cm" x="10.0cm" y="0.0cm"/>
          <rect fill="lightgray" height="2.5cm" stroke="black" stroke-width="1" width="2.5cm" x="12.5cm" y="0.0cm"/>
          <rect fill="white" height="2.5cm" stroke="black" stroke-width="1" width="2.5cm" x="15.0cm" y="0.0cm"/>
          <rect fill="lightgray" height="2.5cm" stroke="black" stroke-width="1" width="2.5cm" x="17.5cm" y="0.0cm"/>
          <rect fill="lightgray" height="2.5cm" stroke="black" stroke-width="1" width="2.5cm" x="0.0cm" y="2.5cm"/>
          <rect fill="white" height="2.5cm" stroke="black" stroke-width="1" width="2.5cm" x="2.5cm" y="2.5cm"/>
          <rect fill="lightgray" height="2.5cm" stroke="black" stroke-width="1" width="2.5cm" x="5.0cm" y="2.5cm"/>
          <rect fill="white" height="2.5cm" stroke="black" stroke-width="1" width="2.5cm" x="7.5cm" y="2.5cm"/>
          <rect fill="lightgray" height="2.5cm" stroke="black" stroke-width="1" width="2.5cm" x="10.0cm" y="2.5cm"/>
          <rect fill="white" height="2.5cm" stroke="black" stroke-width="1" width="2.5cm" x="12.5cm" y="2.5cm"/>
          <rect fill="lightgray" height="2.5cm" stroke="black" stroke-width="1" width="2.5cm" x="15.0cm" y="2.5cm"/>
          <rect fill="white" height="2.5cm" stroke="black" stroke-width="1" width="2.5cm" x="17.5cm" y="2.5cm"/>
          <rect fill="white" height="2.5cm" stroke="black" stroke-width="1" width="2.5cm" x="0.0cm" y="5.0cm"/>
          <rect fill="lightgray" height="2.5cm" stroke="black" stroke-width="1" width="2.5cm" x="2.5cm" y="5.0cm"/>
          <rect fill="white" height="2.5cm" stroke="black" stroke-width="1" width="2.5cm" x="5.0cm" y="5.0cm"/>
          <rect fill="lightgray" height="2.5cm" stroke="black" stroke-width="1" width="2.5cm" x="7.5cm" y="5.0cm"/>
          <rect fill="white" height="2.5cm" stroke="black" stroke-width="1" width="2.5cm" x="10.0cm" y="5.0cm"/>
          <rect fill="lightgray" height="2.5cm" stroke="black" stroke-width="1" width="2.5cm" x="12.5cm" y="5.0cm"/>
          <rect fill="white" height="2.5cm" stroke="black" stroke-width="1" width="2.5cm" x="15.0cm" y="5.0cm"/>
          <rect fill="lightgray" height="2.5cm" stroke="black" stroke-width="1" width="2.5cm" x="17.5cm" y="5.0cm"/>
          <rect fill="lightgray" height="2.5cm" stroke="black" stroke-width="1" width="2.5cm" x="0.0cm" y="7.5cm"/>
          <rect fill="white" height="2.5cm" stroke="black" stroke-width="1" width="2.5cm" x="2.5cm" y="7.5cm"/>
          <rect fill="lightgray" height="2.5cm" stroke="black" stroke-width="1" width="2.5cm" x="5.0cm" y="7.5cm"/>
          <rect fill="white" height="2.5cm" stroke="black" stroke-width="1" width="2.5cm" x="7.5cm" y="7.5cm"/>
          <rect fill="lightgray" height="2.5cm" stroke="black" stroke-width="1" width="2.5cm" x="10.0cm" y="7.5cm"/>
          <rect fill="white" height="2.5cm" stroke="black" stroke-width="1" width="2.5cm" x="12.5cm" y="7.5cm"/>
          <rect fill="lightgray" height="2.5cm" stroke="black" stroke-width="1" width="2.5cm" x="15.0cm" y="7.5cm"/>
          <rect fill="white" height="2.5cm" stroke="black" stroke-width="1" width="2.5cm" x="17.5cm" y="7.5cm"/>
          <rect fill="white" height="2.5cm" stroke="black" stroke-width="1" width="2.5cm" x="0.0cm" y="10.0cm"/>
          <rect fill="lightgray" height="2.5cm" stroke="black" stroke-width="1" width="2.5cm" x="2.5cm" y="10.0cm"/>
          <rect fill="white" height="2.5cm" stroke="black" stroke-width="1" width="2.5cm" x="5.0cm" y="10.0cm"/>
          <rect fill="lightgray" height="2.5cm" stroke="black" stroke-width="1" width="2.5cm" x="7.5cm" y="10.0cm"/>
          <rect fill="white" height="2.5cm" stroke="black" stroke-width="1" width="2.5cm" x="10.0cm" y="10.0cm"/>
          <rect fill="lightgray" height="2.5cm" stroke="black" stroke-width="1" width="2.5cm" x="12.5cm" y="10.0cm"/>
          <rect fill="white" height="2.5cm" stroke="black" stroke-width="1" width="2.5cm" x="15.0cm" y="10.0cm"/>
          <rect fill="lightgray" height="2.5cm" stroke="black" stroke-width="1" width="2.5cm" x="17.5cm" y="10.0cm"/>
          <rect fill="lightgray" height="2.5cm" stroke="black" stroke-width="1" width="2.5cm" x="0.0cm" y="12.5cm"/>
          <rect fill="white" height="2.5cm" stroke="black" stroke-width="1" width="2.5cm" x="2.5cm" y="12.5cm"/>
          <rect fill="lightgray" height="2.5cm" stroke="black" stroke-width="1" width="2.5cm" x="5.0cm" y="12.5cm"/>
          <rect fill="white" height="2.5cm" stroke="black" stroke-width="1" width="2.5cm" x="7.5cm" y="12.5cm"/>
          <rect fill="lightgray" height="2.5cm" stroke="black" stroke-width="1" width="2.5cm" x="10.0cm" y="12.5cm"/>
          <rect fill="white" height="2.5cm" stroke="black" stroke-width="1" width="2.5cm" x="12.5cm" y="12.5cm"/>
          <rect fill="lightgray" height="2.5cm" stroke="black" stroke-width="1" width="2.5cm" x="15.0cm" y="12.5cm"/>
          <rect fill="white" height="2.5cm" stroke="black" stroke-width="1" width="2.5cm" x="17.5cm" y="12.5cm"/>
          <rect fill="white" height="2.5cm" stroke="black" stroke-width="1" width="2.5cm" x="0.0cm" y="15.0cm"/>
          <rect fill="lightgray" height="2.5cm" stroke="black" stroke-width="1" width="2.5cm" x="2.5cm" y="15.0cm"/>
          <rect fill="white" height="2.5cm" stroke="black" stroke-width="1" width="2.5cm" x="5.0cm" y="15.0cm"/>
          <rect fill="lightgray" height="2.5cm" stroke="black" stroke-width="1" width="2.5cm" x="7.5cm" y="15.0cm"/>
          <rect fill="white" height="2.5cm" stroke="black" stroke-width="1" width="2.5cm" x="10.0cm" y="15.0cm"/>
          <rect fill="lightgray" height="2.5cm" stroke="black" stroke-width="1" width="2.5cm" x="12.5cm" y="15.0cm"/>
          <rect fill="white" height="2.5cm" stroke="black" stroke-width="1" width="2.5cm" x="15.0cm" y="15.0cm"/>
          <rect fill="lightgray" height="2.5cm" stroke="black" stroke-width="1" width="2.5cm" x="17.5cm" y="15.0cm"/>
          <rect fill="lightgray" height="2.5cm" stroke="black" stroke-width="1" width="2.5cm" x="0.0cm" y="17.5cm"/>
          <rect fill="white" height="2.5cm" stroke="black" stroke-width="1" width="2.5cm" x="2.5cm" y="17.5cm"/>
          <rect fill="lightgray" height="2.5cm" stroke="black" stroke-width="1" width="2.5cm" x="5.0cm" y="17.5cm"/>
          <rect fill="white" height="2.5cm" stroke="black" stroke-width="1" width="2.5cm" x="7.5cm" y="17.5cm"/>
          <rect fill="lightgray" height="2.5cm" stroke="black" stroke-width="1" width="2.5cm" x="10.0cm" y="17.5cm"/>
          <rect fill="white" height="2.5cm" stroke="black" stroke-width="1" width="2.5cm" x="12.5cm" y="17.5cm"/>
          <rect fill="lightgray" height="2.5cm" stroke="black" stroke-width="1" width="2.5cm" x="15.0cm" y="17.5cm"/>
          <rect fill="white" height="2.5cm" stroke="black" stroke-width="1" width="2.5cm" x="17.5cm" y="17.5cm"/>
        </g>
        <text fill="black" x="0.12cm" y="0.22cm">h1</text>
        <text fill="black" x="2.62cm" y="0.22cm">h2</text>
        <text fill="black" x="5.12cm" y="0.22cm">h3</text>
        <text fill="black" x="7.62cm" y="0.22cm">h4</text>
        <text fill="black" x="10.12cm" y="0.22cm">h5</text>
        <text fill="black" x="12.62cm" y="0.22cm">h6</text>
        <text fill="black" x="15.12cm" y="0.22cm">h7</text>
        <text fill="black" x="17.62cm" y="0.22cm">h8</text>
        <text fill="black" x="0.12cm" y="2.72cm">g1</text>
        <text fill="black" x="2.62cm" y="2.72cm">g2</text>
        <text fill="black" x="5.12cm" y="2.72cm">g3</text>
        <text fill="black" x="7.62cm" y="2.72cm">g4</text>
        <text fill="black" x="10.12cm" y="2.72cm">g5</text>
        <text fill="black" x="12.62cm" y="2.72cm">g6</text>
        <text fill="black" x="15.12cm" y="2.72cm">g7</text>
        <text fill="black" x="17.62cm" y="2.72cm">g8</text>
        <text fill="black" x="0.12cm" y="5.22cm">f1</text>
        <text fill="black" x="2.62cm" y="5.22cm">f2</text>
        <text fill="black" x="5.12cm" y="5.22cm">f3</text>
        <text fill="black" x="7.62cm" y="5.22cm">f4</text>
        <text fill="black" x="10.12cm" y="5.22cm">f5</text>
        <text fill="black" x="12.62cm" y="5.22cm">f6</text>
        <text fill="black" x="15.12cm" y="5.22cm">f7</text>
        <text fill="black" x="17.62cm" y="5.22cm">f8</text>
        <text fill="black" x="0.12cm" y="7.72cm">e1</text>
        <text fill="black" x="2.62cm" y="7.72cm">e2</text>
        <text fill="black" x="5.12cm" y="7.72cm">e3</text>
        <text fill="black" x="7.62cm" y="7.72cm">e4</text>
        <text fill="black" x="10.12cm" y="7.72cm">e5</text>
        <text fill="black" x="12.62cm" y="7.72cm">e6</text>
        <text fill="black" x="15.12cm" y="7.72cm">e7</text>
        <text fill="black" x="17.62cm" y="7.72cm">e8</text>
        <text fill="black" x="0.12cm" y="10.22cm">d1</text>
        <text fill="black" x="2.62cm" y="10.22cm">d2</text>
        <text fill="black" x="5.12cm" y="10.22cm">d3</text>
        <text fill="black" x="7.62cm" y="10.22cm">d4</text>
        <text fill="black" x="10.12cm" y="10.22cm">d5</text>
        <text fill="black" x="12.62cm" y="10.22cm">d6</text>
        <text fill="black" x="15.12cm" y="10.22cm">d7</text>
        <text fill="black" x="17.62cm" y="10.22cm">d8</text>
        <text fill="black" x="0.12cm" y="12.72cm">c1</text>
        <text fill="black" x="2.62cm" y="12.72cm">c2</text>
        <text fill="black" x="5.12cm" y="12.72cm">c3</text>
        <text fill="black" x="7.62cm" y="12.72cm">c4</text>
        <text fill="black" x="10.12cm" y="12.72cm">c5</text>
        <text fill="black" x="12.62cm" y="12.72cm">c6</text>
        <text fill="black" x="15.12cm" y="12.72cm">c7</text>
        <text fill="black" x="17.62cm" y="12.72cm">c8</text>
        <text fill="black" x="0.12cm" y="15.22cm">b1</text>
        <text fill="black" x="2.62cm" y="15.22cm">b2</text>
        <text fill="black" x="5.12cm" y="15.22cm">b3</text>
        <text fill="black" x="7.62cm" y="15.22cm">b4</text>
        <text fill="black" x="10.12cm" y="15.22cm">b5</text>
        <text fill="black" x="12.62cm" y="15.22cm">b6</text>
        <text fill="black" x="15.12cm" y="15.22cm">b7</text>
        <text fill="black" x="17.62cm" y="15.22cm">b8</text>
        <text fill="black" x="0.12cm" y="17.72cm">a1</text>
        <text fill="black" x="2.62cm" y="17.72cm">a2</text>
        <text fill="black" x="5.12cm" y="17.72cm">a3</text>
        <text fill="black" x="7.62cm" y="17.72cm">a4</text>
        <text fill="black" x="10.12cm" y="17.72cm">a5</text>
        <text fill="black" x="12.62cm" y="17.72cm">a6</text>
        <text fill="black" x="15.12cm" y="17.72cm">a7</text>
        <text fill="black" x="17.62cm" y="17.72cm">a8</text>
      </g>
    </g>
    <g>
      <g transform="translate(0, 0) scale(2.0) translate(0.0, 0.0) scale(1) "><g style="opacity:1; fill:none; fill-rule:evenodd; fill-opacity:1; stroke:#000000; stroke-width:1.5; stroke-linecap:round; stroke-linejoin:round; stroke-miterlimit:4; stroke-dasharray:none; stroke-opacity:1;">
    <g style="fill:#000000; stroke:#000000; stroke-linecap:butt;"> 
      <path d="M 9,36 C 12.39,35.03 19.11,36.43 22.5,34 C 25.89,36.43 32.61,35.03 36,36 C 36,36 37.65,36.54 39,38 C 38.32,38.97 37.35,38.99 36,38.5 C 32.61,37.53 25.89,38.96 22.5,37.5 C 19.11,38.96 12.39,37.53 9,38.5 C 7.646,38.99 6.677,38.97 6,38 C 7.354,36.06 9,36 9,36 z"/>
      <path d="M 15,32 C 17.5,34.5 27.5,34.5 30,32 C 30.5,30.5 30,30 30,30 C 30,27.5 27.5,26 27.5,26 C 33,24.5 33.5,14.5 22.5,10.5 C 11.5,14.5 12,24.5 17.5,26 C 17.5,26 15,27.5 15,30 C 15,30 14.5,30.5 15,32 z"/>
      <path d="M 25 8 A 2.5 2.5 0 1 1  20,8 A 2.5 2.5 0 1 1  25 8 z"/>
    </g>
    <path d="M 17.5,26 L 27.5,26 M 15,30 L 30,30 M 22.5,15.5 L 22.5,20.5 M 20,18 L 25,18" style="fill:none; stroke:#ffffff; stroke-linejoin:miter;"/>
  </g>
</g>
      <text font-family="Verdana" font-size="12" font-weight="bold" letter-spacing="0" text-anchor="start" x="25" y="400">Look a bishop!</text>
    </g>
  </g>
</svg>
